PathFileType	4	(X/Y/Z)	Kaydara	
DataRate	CameraRate	NumFrames	NumMarkers	Units	OrigDataRate	OrigDataStartFrame	OrigNumFrames	
120.00	120.00	4	72	mm	120.00	235	268	
Frame#	Time	Hips			RightUpLeg			RightLeg			RightFoot			RightFoot_End			LeftUpLeg			LeftLeg			LeftFoot			LeftFoot_End			Spine			Spine1			Spine2			Spine3			Neck			Head			Head_End			RightShoulder			RightArm			RightForeArm			RightHand			RightHandThumb1			RightHandThumb2			RightHandThumb3			RightHandThumb3_End			RightInHandIndex			RightHandIndex1			RightHandIndex2			RightHandIndex3			RightHandIndex3_End			RightInHandMiddle			RightHandMiddle1			RightHandMiddle2			RightHandMiddle3			RightHandMiddle3_End			RightInHandRing			RightHandRing1			RightHandRing2			RightHandRing3			RightHandRing3_End			RightInHandPinky			RightHandPinky1			RightHandPinky2			RightHandPinky3			RightHandPinky3_End			LeftShoulder			LeftArm			LeftForeArm			LeftHand			LeftHandThumb1			LeftHandThumb2			LeftHandThumb3			LeftHandThumb3_End			LeftInHandIndex			LeftHandIndex1			LeftHandIndex2			LeftHandIndex3			LeftHandIndex3_End			LeftInHandMiddle			LeftHandMiddle1			LeftHandMiddle2			LeftHandMiddle3			LeftHandMiddle3_End			LeftInHandRing			LeftHandRing1			LeftHandRing2			LeftHandRing3			LeftHandRing3_End			LeftInHandPinky			LeftHandPinky1			LeftHandPinky2			LeftHandPinky3			LeftHandPinky3_End			
		X1	Y1	Z1	X2	Y2	Z2	X3	Y3	Z3	X4	Y4	Z4	X5	Y5	Z5	X6	Y6	Z6	X7	Y7	Z7	X8	Y8	Z8	X9	Y9	Z9	X10	Y10	Z10	X11	Y11	Z11	X12	Y12	Z12	X13	Y13	Z13	X14	Y14	Z14	X15	Y15	Z15	X16	Y16	Z16	X17	Y17	Z17	X18	Y18	Z18	X19	Y19	Z19	X20	Y20	Z20	X21	Y21	Z21	X22	Y22	Z22	X23	Y23	Z23	X24	Y24	Z24	X25	Y25	Z25	X26	Y26	Z26	X27	Y27	Z27	X28	Y28	Z28	X29	Y29	Z29	X30	Y30	Z30	X31	Y31	Z31	X32	Y32	Z32	X33	Y33	Z33	X34	Y34	Z34	X35	Y35	Z35	X36	Y36	Z36	X37	Y37	Z37	X38	Y38	Z38	X39	Y39	Z39	X40	Y40	Z40	X41	Y41	Z41	X42	Y42	Z42	X43	Y43	Z43	X44	Y44	Z44	X45	Y45	Z45	X46	Y46	Z46	X47	Y47	Z47	X48	Y48	Z48	X49	Y49	Z49	X50	Y50	Z50	X51	Y51	Z51	X52	Y52	Z52	X53	Y53	Z53	X54	Y54	Z54	X55	Y55	Z55	X56	Y56	Z56	X57	Y57	Z57	X58	Y58	Z58	X59	Y59	Z59	X60	Y60	Z60	X61	Y61	Z61	X62	Y62	Z62	X63	Y63	Z63	X64	Y64	Z64	X65	Y65	Z65	X66	Y66	Z66	X67	Y67	Z67	X68	Y68	Z68	X69	Y69	Z69	X70	Y70	Z70	X71	Y71	Z71	X72	Y72	Z72	

235	1.95	7446.805	859.65103	-201.189	7436.661586260641	819.4888362343406	-257.6572301360846	7403.679073247592	411.7124004572705	-296.5387896219621	7518.444635172254	95.54808719153897	-522.1997025815176	7555.422141521798	-25.564029618609336	-410.2098226221836	7462.761969523594	871.2648209702855	-130.44511997755617	7337.352315253442	485.4502125914023	-29.284786523444453	7249.612923963271	85.48685671148465	68.68798747239408	7319.36964736343	4.522227911162254	226.30928089456486	7421.934900698814	986.8330417294784	-260.1012381431794	7378.500988807833	1064.3574506115147	-297.439229329663	7327.743708850503	1142.1093852184567	-334.4355667375642	7271.240231876531	1211.8660052627201	-366.8956217236353	7209.6843567092565	1285.7535193822682	-396.62455981402684	7156.306124141283	1358.1666598447018	-369.67337570373115	7143.341518413309	1462.8201828121394	-254.4474769328473	7221.1773239443555	1249.2737222777416	-398.50210205288437	7189.385403585567	1190.4697487005683	-419.56866929652074	7196.324310495347	1074.875989917716	-268.67798201000426	7124.468327053976	1019.4800315871017	-211.43281114716785	7124.484214444703	1032.515783568194	-211.859124937897	7123.317866799391	1038.8335997854501	-206.18790004489816	7121.900889160464	1040.544701372531	-200.6373948970421	7120.202280634766	1039.6711274059555	-194.6405147577589	7122.222128706368	1024.0349254092243	-206.21664248091196	7116.960878554312	1021.1921598882014	-192.0559812483549	7113.810917486105	1019.4215254704857	-181.8929237567129	7113.034135297012	1020.8454157776812	-177.8081683769796	7113.188181953418	1023.7269511259425	-175.93386344076936	7120.784776661162	1016.8311141792469	-202.34021597441173	7114.875499960969	1010.1617633732297	-186.43166051874962	7111.266315190205	1007.2886017546697	-174.87580434961305	7110.246644537063	1008.5549005394032	-169.7241152355977	7110.375088379544	1011.4882955631756	-167.56459457560425	7119.893352862982	1011.7939155657328	-199.95272773579245	7113.793821192418	1001.3849451430957	-183.5932764092794	7110.481716943007	997.929575466354	-173.07009553204125	7109.409837526385	998.645932357811	-167.86135477662802	7109.488752930495	1001.1647179212089	-165.7173542033187	7119.098655086619	1006.2301466865969	-197.69122636025506	7112.978372494759	993.1841926469574	-181.25359675126393	7110.0933491652695	988.9789639465948	-172.19474556581898	7109.198896167186	988.8057236187544	-168.08961381525685	7109.203990155673	990.6365452664074	-166.01435851449568	7239.969171728856	1275.2113567555673	-376.7451656635509	7280.007791159691	1302.9521988396993	-327.59073651176357	7271.68234853556	1141.1203094286	-263.5852833579421	7211.548841297511	1038.7421622461611	-241.96456992182118	7204.578967314095	1051.1155331366829	-237.74117930083048	7204.42452011176	1046.3325697014047	-236.12855619982125	7206.340889318028	1040.1902005070026	-235.34275299009516	7209.669904149477	1032.6644014736694	-234.97615029850274	7211.095690507068	1043.1472169987615	-238.3388787558706	7218.33908869509	1035.228390731655	-235.01735530620942	7223.9088169061315	1024.5098797676378	-233.90068136829927	7225.451171316955	1017.8923220314848	-233.8452990051306	7225.432446034387	1012.4460940217047	-234.23038536739585	7216.3734820377085	1035.5284474601349	-239.42847816858006	7226.2930831400145	1023.685152537287	-236.777790078521	7233.044325093679	1011.0030279422238	-235.71531210197134	7235.228333111818	1002.5459906979166	-235.72337506044238	7235.364970977839	996.3567871918012	-236.1811311403548	7219.926701794113	1030.3807883804732	-240.27245160987488	7231.928308497233	1015.3946199502722	-238.59855735448494	7238.485424000702	1003.3512402282067	-237.8362795844557	7240.949317080021	994.6682261891433	-237.9310329825759	7241.247077128989	988.5997808935748	-238.4026570278789	7223.738870191523	1024.41787765795	-241.4248163141845	7237.130404839968	1007.1044621015483	-240.56335726177156	7243.378197235504	995.981802093432	-240.21584452524655	7245.657699397438	988.9330480622311	-240.41212930123623	7246.1990533925	983.1457118511056	-240.90309997112587
236	1.958	7446.805	859.65103	-201.189	7435.373184049408	818.9770108807227	-258.0589579091308	7403.748212121962	411.08628760475995	-297.3339699052841	7518.836883485873	96.19195748951994	-525.4952355514156	7557.1382409395555	-25.510401349859855	-414.23259289680914	7464.02262145369	871.7798412837731	-130.02386618801182	7338.6243316960245	486.04398796916485	-28.544887844652948	7250.522334181633	85.589621290297	68.1102403457482	7320.421170269973	3.982826472545625	225.45137012171438	7422.133977658947	986.8508882684177	-260.1604692115263	7378.763799078991	1064.4532882415238	-297.3957120415273	7328.076023661078	1142.3121761970247	-334.24479091994937	7271.6260629051285	1212.197441215124	-366.48993011167414	7210.128938757677	1286.2174855842127	-395.9638539792523	7156.566571058234	1358.6494541686816	-369.2938555134362	7143.896980721593	1463.6546527068672	-254.34982471223108	7221.190535920764	1249.3532061912958	-397.8906218866094	7187.725161287027	1189.2279258611977	-418.42474402554683	7192.742139965079	1074.6628961045758	-264.82242094212916	7117.6686473990085	1017.6855704899992	-204.1605000105776	7117.569398774951	1030.3730254950617	-204.62367043619298	7116.316339721391	1036.3618430287665	-198.5454781081454	7114.797970923345	1037.8539019385873	-192.65028561640918	7112.979757973533	1036.8063379728787	-186.31363530308667	7115.130009923649	1021.8915929012032	-198.7890763230638	7109.355259576898	1018.5734674661685	-184.05920924814544	7105.953429191557	1016.4972647658731	-173.37097935526882	7105.151204404508	1017.7737168022109	-168.982964954418	7105.3726532192195	1020.5619076690112	-166.87332907150994	7113.604016156243	1014.7329207912865	-194.75966851495718	7107.145910341004	1007.624326816834	-178.21321592940052	7103.251987343322	1004.4252588663891	-166.06579178733367	7102.196871411395	1005.5172921035635	-160.53935413699207	7102.396756510087	1008.3503079280407	-158.1180229812362	7112.661629444831	1009.7394584332454	-192.27942087570256	7106.0217811487755	998.973970843204	-175.27009532468256	7102.452261372112	995.2429312332872	-164.21338872426537	7101.341287279283	995.7956515119425	-158.63366057914635	7101.48505133176	998.2221671714575	-156.23898436174306	7111.834424322104	1004.2421146553511	-189.921223905357	7105.193524008222	990.9090062743862	-172.83041045895305	7102.090328615621	986.4976794288075	-163.319213767976	7101.161534096545	986.2121676534314	-158.9313318623665	7101.2207206694175	987.9653311286623	-156.6270260722514	7240.830019900962	1275.9679756538053	-376.26490181241707	7282.427295644375	1305.1612003498888	-327.0511958117679	7272.526230321431	1141.9486784928056	-259.33657666667364	7208.458251676619	1037.5059140399762	-237.69468018221545	7201.151931423555	1049.610723516134	-233.36387419568555	7200.70965288213	1044.6451200724516	-231.40814866961682	7202.492927797879	1038.3679089678287	-230.34446512303953	7205.768605136113	1030.7231525683335	-229.71289017082742	7207.892284207853	1041.5738757987665	-233.82032546830487	7215.15650592513	1033.1827983826086	-229.93876110967852	7220.670958613475	1022.2235869390536	-228.38849899605415	7222.084173628278	1015.5475338685584	-228.11466339057108	7221.894631260722	1010.1143715701141	-228.3534102779801	7213.349220029928	1033.9549127792707	-234.82141220657462	7223.386050863838	1021.6508685255371	-231.57661301499104	7230.100459290857	1008.7077079433535	-230.03108682160845	7232.139933873576	1000.1808740822929	-229.77083519258616	7232.095144901854	994.0063440314458	-230.06615596382193	7217.029626652118	1028.8181311948415	-235.61722207810865	7229.250074956586	1013.4254479983728	-233.36930811136963	7235.7988907058525	1001.1569377687956	-232.17680273130065	7238.136011181765	992.4078685127953	-232.0078592511419	7238.269174597903	986.3538215239873	-232.32443781906525	7220.978699974566	1022.8896074870308	-236.72967607467993	7234.6592312612	1005.2209065915467	-235.3172099214625	7240.9365524245	993.92347866352	-234.6133348879127	7243.1410850879965	986.8292082241529	-234.61154487483918	7243.546704156846	981.0561600248424	-234.96187097774316
237	1.967	7446.805	859.65103	-201.189	7434.089211305035	818.4687387013728	-258.4560510820481	7403.819224116416	410.46436049460254	-298.1253041419095	7519.2207414949	96.83542671827516	-528.7793851132429	7558.840959634945	-25.455978888960708	-418.24388679386067	7465.278968364122	872.2912783145889	-129.60735496479734	7339.891961109579	486.6337244288655	-27.812269926736082	7251.428455065816	85.69231112098757	67.53524892084809	7321.466997661046	3.4465707051317835	224.5978496625316	7422.332247845284	986.8686489883012	-260.21951733932974	7379.025747247207	1064.548936416203	-297.3521519733772	7328.407608667539	1142.5148157839537	-334.05423784778174	7272.011244335964	1212.528441142345	-366.0849295155225	7210.573088505387	1286.6808522458557	-395.3043825221898	7156.829307305005	1359.1328257716789	-368.914621100388	7144.455051795593	1464.4893718365313	-254.25222561433824	7221.204661925146	1249.4342346257013	-397.2791562820911	7186.072327122873	1187.9967536573008	-417.27860262115144	7189.183516832311	1074.462969836717	-260.97574739045996	7110.907416155207	1015.9156286786251	-196.90159684593084	7110.694382841284	1028.2567152777738	-197.40161762309873	7109.3557584180435	1033.917318074955	-190.91789568908325	7107.7368470486035	1035.1908313699419	-184.67910983950657	7105.799780295639	1033.969649969271	-178.00368064782958	7108.078059710273	1019.7748449951333	-191.37512865149864	7101.792348709924	1015.9837499599573	-176.0772187514571	7098.140075116037	1013.6029211857494	-164.86523935977453	7097.312868891454	1014.7319791816603	-160.17502159524426	7097.601814588265	1017.426496891142	-157.83104390380183	7106.463456929306	1012.6610615858564	-187.19298030466925	7099.459016780746	1005.1154206369557	-170.00989501479788	7095.281907376046	1001.5914327949681	-157.2724843314721	7094.191900451831	1002.5092338367572	-151.37258555929495	7094.463329436236	1005.241501102618	-148.69053291420647	7105.470069907936	1007.7111050444433	-184.62010829268803	7098.292120925119	996.5908903600624	-166.96214313106984	7094.4665297704605	992.5849944402454	-155.37331665410113	7093.316991180207	992.9740857610049	-149.4238575178021	7093.525698258278	995.3079726076746	-146.77953650894608	7104.610206893983	1002.2797926051705	-182.1653801429409	7097.450643740346	988.6609548428199	-164.42259888098982	7094.130329793366	984.0441014915184	-154.46021993851505	7093.167569421529	983.6462852119116	-149.79052244207622	7093.280925823532	985.3214503417228	-147.25808977142594	7241.68870671636	1276.7218886850694	-375.78650365447703	7284.839810346224	1307.3594999306797	-326.51959217527144	7273.378172463182	1142.7796314442594	-255.10545825585285	7205.387787264129	1036.2906924853119	-233.43511611261425	7197.746467102755	1048.1292248249551	-228.9973938114428	7197.018314197584	1042.983171702956	-226.69905817464138	7198.669724280184	1036.5726721474775	-225.35794539415895	7201.892974966075	1028.8102774837232	-224.461866855754	7204.710030217158	1040.0242173519237	-229.3130794474319	7211.996470231657	1031.1647861598885	-224.87316497921708	7217.457012369816	1019.9672581022754	-222.89023122215755	7218.742153474288	1013.2336862058344	-222.39815003096527	7218.382822217706	1007.8140568720061	-222.49048503843906	7210.345717754083	1032.4049860586047	-230.22587673570527	7220.500926276508	1019.6439534922902	-226.38873641352964	7227.179934802215	1006.4423352740527	-224.36118576730075	7229.076134627719	997.8468719172631	-223.83288142586235	7228.851030826643	991.6875212332028	-223.96569317868233	7214.152993695346	1027.2789339663257	-230.97364128399738	7226.593023291954	1011.4829907105776	-228.15340728110368	7233.134730017209	998.9915678717662	-226.53158794457048	7235.346260746466	990.1775535644371	-226.0992115163163	7235.315858294853	984.1383731662199	-226.26068066974554	7218.238601771749	1021.3844799612795	-232.04624284372537	7232.208564947183	1003.3632989669702	-230.08437735742652	7238.516273407893	991.8928190343036	-229.02489749565575	7240.646653416714	984.7538128757255	-228.82523770875142	7240.917424212083	978.9954507815486	-229.03486980330135
238	1.975	7446.805	859.65103	-201.189	7432.809970116093	817.9641549228849	-258.8483809799887	7403.892104883371	409.8467792877437	-298.9125481797167	7519.59610555441	97.47835760489895	-532.0512939942245	7560.529887217963	-25.40076366591959	-422.2426878150774	7466.530714248624	872.7989959360651	-129.19571960624208	7341.154889089633	487.2192736373248	-27.087134489523198	7252.331041811151	85.79493097209118	66.96319298760058	7322.506856533481	2.913625806226012	223.74896518803342	7422.529666480817	986.8863194495639	-260.2783705499634	7379.286777193807	1064.6443765012943	-297.30855799749924	7328.7383961759115	1142.7172660625959	-333.86394716425133	7272.395701705733	1212.858944764995	-365.68070596456005	7211.01672447584	1287.1435366076041	-394.64628676569697	7157.094316099901	1359.6166953703291	-368.53574247991054	7145.0156416864165	1465.3241805230155	-254.15468812327217	7221.219720735077	1249.5168251998082	-396.66781983108973	7184.42732576515	1186.7766299961968	-416.1304204851286	7185.6494900490525	1074.2764711800232	-257.13878286286126	7104.186549364907	1014.1711231391963	-189.65772792419048	7103.861098658559	1026.1678972809875	-190.19455798491842	7102.438085501236	1031.5011842559895	-183.30683107800542	7100.719514848088	1032.5567263822918	-176.72562399517977	7098.664385297454	1031.162362330003	-169.71248749337502	7101.068263156965	1017.685730774221	-183.97644442210498	7094.27427063815	1013.4242369756108	-168.11177809962408	7090.37305784241	1010.7398358755222	-156.3775940126809	7089.521347464844	1011.72159384796	-151.38630012565602	7089.8778763227065	1014.3221377404345	-148.80902617920526	7099.365114722217	1010.6165714054523	-179.64184182693742	7091.816987762608	1002.6362480538334	-161.82353322035848	7087.358332340627	998.7884459900948	-148.49785609784834	7086.23400987565	999.532107063088	-142.22587269370797	7086.577076967249	1002.163286486689	-139.28425061286947	7098.320708397727	1005.7098757355345	-176.97650926097785	7090.607028437669	994.2368628097938	-158.67129334967083	7086.526790654295	989.9570253199952	-146.55187925943824	7085.339239967442	990.1825506375815	-140.23403439864654	7085.612977398791	992.4234773354123	-137.34116012812285	7097.428051666691	1000.3441776512693	-174.42544573393067	7089.751931755197	986.4411490399301	-156.03207278488122	7086.215621939046	981.6194168116101	-145.61978406392126	7085.219289833614	981.1093008973999	-140.66927422633808	7085.386888355084	982.7061505472088	-137.9096942581936	7242.545047609975	1277.4729269959796	-375.3100877481429	7287.244774111925	1309.5465560238692	-325.99614156120725	7274.23808424711	1143.6131058630215	-250.89300712237502	7202.338287697471	1035.0971804570675	-229.18685413473963	7194.363530010673	1046.6718123188007	-224.64271562631808	7193.351551386584	1041.3475654614072	-222.0023245802234	7194.872371289581	1034.8053801255608	-220.38428966771704	7198.044127893938	1026.9267103344655	-219.22423363983265	7201.549825930595	1038.4990436977075	-224.81816150681152	7208.859907144344	1029.175326602094	-219.8217097507054	7214.267934393514	1017.7419540224333	-217.40711519445594	7215.426105253718	1010.9518618628947	-216.6970401719364	7214.898057790332	1005.5462288795118	-216.6429175891607	7207.363821450129	1030.8794715264455	-225.64292290999413	7217.638555385819	1017.6653791582033	-221.21534685355084	7224.2836242957455	1004.2079776254478	-218.70690205088172	7226.037850829318	995.5450783566968	-217.91086181118342	7225.633591290657	989.401408648677	-217.88112088904296	7211.297612075269	1025.7639984846262	-226.34277871421116	7223.9579295810145	1009.5681989366818	-222.9520616645876	7230.493734274339	996.8561644582259	-220.90193836495334	7232.580895681011	987.9783404841302	-220.2064477629885	7232.388000641644	981.9544907698512	-220.21277269955812	7215.519342977593	1019.9032862381924	-227.37560361617125	7229.779116454749	1001.5325618303054	-224.86608337811236	7236.118073028168	989.8908107758893	-223.45183814151088	7238.175139434353	982.7078672307202	-223.0545559405061	7238.311983281353	976.964585190624	-223.12347174119733
